<mxfile host="app.diagrams.net" modified="2021-05-13T03:43:39.476Z" agent="5.0 (Macintosh; Intel Mac OS X 10_15_7) AppleWebKit/537.36 (KHTML, like Gecko) Chrome/90.0.4430.93 Safari/537.36" etag="LqYfBxo_VnZ0qDw4mGKz" version="14.6.12" type="github">
  <diagram id="0KDnX90qYyFy4eXE8r0O" name="Page-1">
    <mxGraphModel dx="1167" dy="769" grid="1" gridSize="10" guides="1" tooltips="1" connect="1" arrows="1" fold="1" page="1" pageScale="1" pageWidth="1169" pageHeight="827" math="0" shadow="0">
      <root>
        <mxCell id="0" />
        <mxCell id="1" parent="0" />
        <mxCell id="2TuWQ2MRCflO3B66ABBu-47" style="edgeStyle=orthogonalEdgeStyle;rounded=0;orthogonalLoop=1;jettySize=auto;html=1;entryX=0;entryY=0.5;entryDx=0;entryDy=0;fontSize=14;" edge="1" parent="1" source="2TuWQ2MRCflO3B66ABBu-1" target="2TuWQ2MRCflO3B66ABBu-45">
          <mxGeometry relative="1" as="geometry" />
        </mxCell>
        <mxCell id="2TuWQ2MRCflO3B66ABBu-1" value="" style="shape=image;html=1;verticalAlign=top;verticalLabelPosition=bottom;labelBackgroundColor=#ffffff;imageAspect=0;aspect=fixed;image=https://cdn0.iconfinder.com/data/icons/kameleon-free-pack/110/Hacker-128.png" vertex="1" parent="1">
          <mxGeometry x="100" y="442.5" width="68" height="68" as="geometry" />
        </mxCell>
        <mxCell id="2TuWQ2MRCflO3B66ABBu-42" value="" style="group" vertex="1" connectable="0" parent="1">
          <mxGeometry x="120" y="90" width="360" height="280" as="geometry" />
        </mxCell>
        <mxCell id="2TuWQ2MRCflO3B66ABBu-41" value="" style="rounded=1;whiteSpace=wrap;html=1;fontSize=14;align=left;" vertex="1" parent="2TuWQ2MRCflO3B66ABBu-42">
          <mxGeometry width="360" height="280" as="geometry" />
        </mxCell>
        <mxCell id="2TuWQ2MRCflO3B66ABBu-18" value="Comment" style="html=1;fillColor=none;strokeColor=none;fontSize=15;align=left;fontColor=#000000;whiteSpace=wrap;fontStyle=1" vertex="1" parent="2TuWQ2MRCflO3B66ABBu-42">
          <mxGeometry x="20" y="27.5" width="90" height="20" as="geometry" />
        </mxCell>
        <mxCell id="2TuWQ2MRCflO3B66ABBu-19" value="" style="shape=line;strokeColor=#596780;html=1;fontSize=14;align=left;" vertex="1" parent="2TuWQ2MRCflO3B66ABBu-42">
          <mxGeometry x="20" y="47.5" width="320" height="10" as="geometry" />
        </mxCell>
        <mxCell id="2TuWQ2MRCflO3B66ABBu-20" value="" style="shape=mxgraph.ios7.icons.user;fillColor=#ffffff;strokeColor=#253858;fontSize=14;align=left;" vertex="1" parent="2TuWQ2MRCflO3B66ABBu-42">
          <mxGeometry x="40" y="67.5" width="32" height="32" as="geometry" />
        </mxCell>
        <mxCell id="2TuWQ2MRCflO3B66ABBu-21" value="Alex" style="html=1;fillColor=none;strokeColor=none;fontSize=12;align=left;fontColor=#000000;whiteSpace=wrap;fontStyle=1" vertex="1" parent="2TuWQ2MRCflO3B66ABBu-42">
          <mxGeometry x="80" y="67.5" width="90" height="20" as="geometry" />
        </mxCell>
        <mxCell id="2TuWQ2MRCflO3B66ABBu-23" value="Hello, I&#39;m Alex." style="html=1;fillColor=none;strokeColor=none;fontSize=12;align=left;fontColor=#000000;whiteSpace=wrap" vertex="1" parent="2TuWQ2MRCflO3B66ABBu-42">
          <mxGeometry x="80" y="87.5" width="240" height="20" as="geometry" />
        </mxCell>
        <mxCell id="2TuWQ2MRCflO3B66ABBu-26" value="" style="shape=mxgraph.ios7.icons.user;fillColor=#ffffff;strokeColor=#253858;fontSize=14;align=left;" vertex="1" parent="2TuWQ2MRCflO3B66ABBu-42">
          <mxGeometry x="40" y="230" width="32" height="32" as="geometry" />
        </mxCell>
        <mxCell id="2TuWQ2MRCflO3B66ABBu-27" value="Add comment" style="rounded=1;arcSize=9;fillColor=#ffffff;align=left;spacingLeft=5;strokeColor=#DEE1E6;html=1;strokeWidth=2;fontColor=#596780;fontSize=12" vertex="1" parent="2TuWQ2MRCflO3B66ABBu-42">
          <mxGeometry x="80" y="230" width="260" height="33" as="geometry" />
        </mxCell>
        <mxCell id="2TuWQ2MRCflO3B66ABBu-28" value="" style="html=1;shadow=0;dashed=0;shape=mxgraph.basic.cross2;dx=0;strokeColor=#42526E;fillColor=#42526E" vertex="1" parent="2TuWQ2MRCflO3B66ABBu-27">
          <mxGeometry x="1" y="0.5" width="14" height="14" relative="1" as="geometry">
            <mxPoint x="-28" y="-7" as="offset" />
          </mxGeometry>
        </mxCell>
        <mxCell id="2TuWQ2MRCflO3B66ABBu-36" value="" style="shape=mxgraph.ios7.icons.user;fillColor=#ffffff;strokeColor=#253858;fontSize=14;align=left;" vertex="1" parent="2TuWQ2MRCflO3B66ABBu-42">
          <mxGeometry x="40" y="117.5" width="32" height="32" as="geometry" />
        </mxCell>
        <mxCell id="2TuWQ2MRCflO3B66ABBu-37" value="Bill" style="html=1;fillColor=none;strokeColor=none;fontSize=12;align=left;fontColor=#000000;whiteSpace=wrap;fontStyle=1" vertex="1" parent="2TuWQ2MRCflO3B66ABBu-42">
          <mxGeometry x="80" y="117.5" width="90" height="20" as="geometry" />
        </mxCell>
        <mxCell id="2TuWQ2MRCflO3B66ABBu-38" value="Good day!" style="html=1;fillColor=none;strokeColor=none;fontSize=12;align=left;fontColor=#000000;whiteSpace=wrap" vertex="1" parent="2TuWQ2MRCflO3B66ABBu-42">
          <mxGeometry x="80" y="137.5" width="240" height="20" as="geometry" />
        </mxCell>
        <mxCell id="2TuWQ2MRCflO3B66ABBu-39" value="" style="shape=line;strokeColor=#596780;html=1;fontSize=14;align=left;" vertex="1" parent="2TuWQ2MRCflO3B66ABBu-42">
          <mxGeometry x="20" y="210" width="320" height="10" as="geometry" />
        </mxCell>
        <mxCell id="2TuWQ2MRCflO3B66ABBu-43" value="&lt;div style=&quot;color: rgb(212 , 212 , 212) ; background-color: rgb(30 , 30 , 30) ; font-family: &amp;#34;menlo&amp;#34; , &amp;#34;monaco&amp;#34; , &amp;#34;courier new&amp;#34; , monospace ; font-size: 12px ; line-height: 18px&quot;&gt;&lt;div&gt;&lt;span style=&quot;color: #808080&quot;&gt;&amp;lt;&lt;/span&gt;&lt;span style=&quot;color: #569cd6&quot;&gt;ul&lt;/span&gt; &lt;span style=&quot;color: #9cdcfe&quot;&gt;class&lt;/span&gt;=&lt;span style=&quot;color: #ce9178&quot;&gt;&quot;Comments&quot;&lt;/span&gt;&lt;span style=&quot;color: #808080&quot;&gt;&amp;gt;&lt;/span&gt;&lt;/div&gt;&lt;div&gt;  &lt;span style=&quot;color: #808080&quot;&gt;&amp;nbsp; &amp;lt;&lt;/span&gt;&lt;span style=&quot;color: #569cd6&quot;&gt;li&lt;/span&gt;&lt;span style=&quot;color: #808080&quot;&gt;&amp;gt;&lt;/span&gt;&lt;/div&gt;&lt;div&gt;    &lt;span style=&quot;color: #808080&quot;&gt;&amp;nbsp; &amp;nbsp; &amp;lt;&lt;/span&gt;&lt;span style=&quot;color: #569cd6&quot;&gt;h3&lt;/span&gt;&lt;span style=&quot;color: #808080&quot;&gt;&amp;gt;&lt;/span&gt;Alex&lt;span style=&quot;color: #808080&quot;&gt;&amp;lt;/&lt;/span&gt;&lt;span style=&quot;color: #569cd6&quot;&gt;h3&lt;/span&gt;&lt;span style=&quot;color: #808080&quot;&gt;&amp;gt;&lt;/span&gt;&lt;/div&gt;&lt;div&gt;    &lt;span style=&quot;color: #808080&quot;&gt;&amp;nbsp; &amp;nbsp; &amp;lt;&lt;/span&gt;&lt;span style=&quot;color: #569cd6&quot;&gt;p&lt;/span&gt;&lt;span style=&quot;color: #808080&quot;&gt;&amp;gt;&lt;/span&gt;Hello, I&#39;m Alex.&lt;span style=&quot;color: #808080&quot;&gt;&amp;lt;/&lt;/span&gt;&lt;span style=&quot;color: #569cd6&quot;&gt;p&lt;/span&gt;&lt;span style=&quot;color: #808080&quot;&gt;&amp;gt;&lt;/span&gt;&lt;/div&gt;&lt;div&gt;  &lt;span style=&quot;color: #808080&quot;&gt;&amp;nbsp; &amp;lt;/&lt;/span&gt;&lt;span style=&quot;color: #569cd6&quot;&gt;li&lt;/span&gt;&lt;span style=&quot;color: #808080&quot;&gt;&amp;gt;&lt;/span&gt;&lt;/div&gt;&lt;div&gt;  &lt;span style=&quot;color: #808080&quot;&gt;&amp;nbsp; &amp;lt;&lt;/span&gt;&lt;span style=&quot;color: #569cd6&quot;&gt;li&lt;/span&gt;&lt;span style=&quot;color: #808080&quot;&gt;&amp;gt;&lt;/span&gt;&lt;/div&gt;&lt;div&gt;    &lt;span style=&quot;color: #808080&quot;&gt;&amp;nbsp; &amp;nbsp; &amp;lt;&lt;/span&gt;&lt;span style=&quot;color: #569cd6&quot;&gt;h3&lt;/span&gt;&lt;span style=&quot;color: #808080&quot;&gt;&amp;gt;&lt;/span&gt;Bill&lt;span style=&quot;color: #808080&quot;&gt;&amp;lt;/&lt;/span&gt;&lt;span style=&quot;color: #569cd6&quot;&gt;h3&lt;/span&gt;&lt;span style=&quot;color: #808080&quot;&gt;&amp;gt;&lt;/span&gt;&lt;/div&gt;&lt;div&gt;    &lt;span style=&quot;color: #808080&quot;&gt;&amp;nbsp; &amp;nbsp; &amp;lt;&lt;/span&gt;&lt;span style=&quot;color: #569cd6&quot;&gt;p&lt;/span&gt;&lt;span style=&quot;color: #808080&quot;&gt;&amp;gt;&lt;/span&gt;Good day!&lt;span style=&quot;color: #808080&quot;&gt;&amp;lt;/&lt;/span&gt;&lt;span style=&quot;color: #569cd6&quot;&gt;p&lt;/span&gt;&lt;span style=&quot;color: #808080&quot;&gt;&amp;gt;&lt;/span&gt;&lt;/div&gt;&lt;div&gt;  &lt;span style=&quot;color: #808080&quot;&gt;&amp;nbsp; &amp;lt;/&lt;/span&gt;&lt;span style=&quot;color: #569cd6&quot;&gt;li&lt;/span&gt;&lt;span style=&quot;color: #808080&quot;&gt;&amp;gt;&lt;/span&gt;&lt;/div&gt;&lt;div&gt;&lt;span style=&quot;color: #808080&quot;&gt;&amp;lt;/&lt;/span&gt;&lt;span style=&quot;color: #569cd6&quot;&gt;ul&lt;/span&gt;&lt;span style=&quot;color: #808080&quot;&gt;&amp;gt;&lt;/span&gt;&lt;/div&gt;&lt;br&gt;&lt;div&gt;&lt;span style=&quot;color: #808080&quot;&gt;&amp;lt;&lt;/span&gt;&lt;span style=&quot;color: #569cd6&quot;&gt;input&lt;/span&gt; &lt;span style=&quot;color: #9cdcfe&quot;&gt;type&lt;/span&gt;=&lt;span style=&quot;color: #ce9178&quot;&gt;&quot;text&quot;&lt;/span&gt; &lt;span style=&quot;color: #9cdcfe&quot;&gt;placeholder&lt;/span&gt;=&lt;span style=&quot;color: #ce9178&quot;&gt;&quot;Add comment&quot;&lt;/span&gt; &lt;span style=&quot;color: #808080&quot;&gt;/&amp;gt;&lt;/span&gt;&lt;/div&gt;&lt;/div&gt;" style="text;html=1;align=left;verticalAlign=middle;resizable=0;points=[];autosize=1;fontSize=14;rounded=0;shadow=0;sketch=0;glass=0;" vertex="1" parent="1">
          <mxGeometry x="490" y="120" width="360" height="220" as="geometry" />
        </mxCell>
        <mxCell id="2TuWQ2MRCflO3B66ABBu-45" value="&lt;font color=&quot;#ea6b66&quot;&gt;Hi!&amp;lt;script&amp;gt;alert(&#39;Hack&#39;)&amp;lt;/script&amp;gt;&lt;/font&gt;" style="rounded=1;arcSize=9;fillColor=#ffffff;align=left;spacingLeft=5;strokeColor=#DEE1E6;html=1;strokeWidth=2;fontColor=#596780;fontSize=12" vertex="1" parent="1">
          <mxGeometry x="200" y="460" width="260" height="33" as="geometry" />
        </mxCell>
        <mxCell id="2TuWQ2MRCflO3B66ABBu-46" value="" style="html=1;shadow=0;dashed=0;shape=mxgraph.basic.cross2;dx=0;strokeColor=#42526E;fillColor=#42526E" vertex="1" parent="2TuWQ2MRCflO3B66ABBu-45">
          <mxGeometry x="1" y="0.5" width="14" height="14" relative="1" as="geometry">
            <mxPoint x="-28" y="-7" as="offset" />
          </mxGeometry>
        </mxCell>
        <mxCell id="2TuWQ2MRCflO3B66ABBu-50" value="" style="points=[];aspect=fixed;html=1;align=center;shadow=0;dashed=0;image;image=img/lib/allied_telesis/computer_and_terminals/Server_Desktop.svg;rounded=0;glass=0;sketch=0;fontSize=14;strokeColor=#000000;" vertex="1" parent="1">
          <mxGeometry x="650" y="449.5" width="42.599999999999994" height="54" as="geometry" />
        </mxCell>
        <mxCell id="2TuWQ2MRCflO3B66ABBu-52" value="&lt;div style=&quot;color: rgb(212 , 212 , 212) ; background-color: rgb(30 , 30 , 30) ; font-family: &amp;#34;menlo&amp;#34; , &amp;#34;monaco&amp;#34; , &amp;#34;courier new&amp;#34; , monospace ; font-size: 12px ; line-height: 18px&quot;&gt;&lt;div&gt;&lt;div style=&quot;font-family: &amp;#34;menlo&amp;#34; , &amp;#34;monaco&amp;#34; , &amp;#34;courier new&amp;#34; , monospace ; line-height: 18px&quot;&gt;&lt;div&gt;{&lt;/div&gt;&lt;div&gt;  &lt;span style=&quot;color: #9cdcfe&quot;&gt;&amp;nbsp; &quot;user_1&quot;&lt;/span&gt;: {&lt;/div&gt;&lt;div&gt;    &lt;span style=&quot;color: #9cdcfe&quot;&gt;&amp;nbsp; &amp;nbsp; &quot;name&quot;&lt;/span&gt;: &lt;span style=&quot;color: #ce9178&quot;&gt;&quot;Alex&quot;&lt;/span&gt;,&lt;/div&gt;&lt;div&gt;    &lt;span style=&quot;color: #9cdcfe&quot;&gt;&amp;nbsp; &amp;nbsp; &quot;comment&quot;&lt;/span&gt;: &lt;span style=&quot;color: #ce9178&quot;&gt;&quot;Hello, I&#39;m Alex.&quot;&lt;/span&gt;&lt;/div&gt;&lt;div&gt;&amp;nbsp; },&lt;/div&gt;&lt;div&gt;  &lt;span style=&quot;color: #9cdcfe&quot;&gt;&amp;nbsp; &quot;user_2&quot;&lt;/span&gt;: {&lt;/div&gt;&lt;div&gt;    &lt;span style=&quot;color: #9cdcfe&quot;&gt;&amp;nbsp; &amp;nbsp; &quot;name&quot;&lt;/span&gt;: &lt;span style=&quot;color: #ce9178&quot;&gt;&quot;Bill&quot;&lt;/span&gt;,&lt;/div&gt;&lt;div&gt;    &lt;span style=&quot;color: #9cdcfe&quot;&gt;&amp;nbsp; &amp;nbsp; &quot;comment&quot;&lt;/span&gt;: &lt;span style=&quot;color: #ce9178&quot;&gt;&quot;Good day!&quot;&lt;/span&gt;&lt;/div&gt;&lt;div&gt;&amp;nbsp; },&lt;/div&gt;&lt;div&gt;  &lt;span style=&quot;color: #9cdcfe&quot;&gt;&amp;nbsp; &quot;user_3&quot;&lt;/span&gt;: {&lt;/div&gt;&lt;div&gt;    &lt;span style=&quot;color: #9cdcfe&quot;&gt;&amp;nbsp; &amp;nbsp; &quot;name&quot;&lt;/span&gt;: &lt;span style=&quot;color: #ce9178&quot;&gt;&quot;Hacker&quot;&lt;/span&gt;,&lt;/div&gt;&lt;div&gt;    &lt;span style=&quot;color: #9cdcfe&quot;&gt;&amp;nbsp; &amp;nbsp; &quot;comment&quot;&lt;/span&gt;: &lt;span style=&quot;color: #ce9178&quot;&gt;&quot;Hi!&amp;lt;script&amp;gt;alert(&#39;Hack&#39;)&amp;lt;/script&amp;gt;&quot;&lt;/span&gt;&lt;/div&gt;&lt;div&gt;&amp;nbsp; }&lt;/div&gt;&lt;div&gt;}&lt;/div&gt;&lt;/div&gt;&lt;/div&gt;&lt;/div&gt;" style="text;html=1;align=left;verticalAlign=middle;resizable=0;points=[];autosize=1;strokeColor=none;fontSize=14;" vertex="1" parent="1">
          <mxGeometry x="750" y="360" width="380" height="260" as="geometry" />
        </mxCell>
        <mxCell id="2TuWQ2MRCflO3B66ABBu-53" value="" style="fillColor=#28A8E0;verticalLabelPosition=bottom;html=1;strokeColor=#ffffff;verticalAlign=top;align=center;points=[[0.145,0.145,0],[0.5,0,0],[0.855,0.145,0],[1,0.5,0],[0.855,0.855,0],[0.5,1,0],[0.145,0.855,0],[0,0.5,0]];pointerEvents=1;shape=mxgraph.cisco_safe.compositeIcon;bgIcon=ellipse;resIcon=mxgraph.cisco_safe.capability.user;rounded=0;shadow=0;glass=0;sketch=0;fontSize=14;" vertex="1" parent="1">
          <mxGeometry x="112.5" y="670" width="43" height="43" as="geometry" />
        </mxCell>
        <mxCell id="2TuWQ2MRCflO3B66ABBu-54" value="" style="group" vertex="1" connectable="0" parent="1">
          <mxGeometry x="180" y="580" width="360" height="280" as="geometry" />
        </mxCell>
        <mxCell id="2TuWQ2MRCflO3B66ABBu-55" value="" style="rounded=1;whiteSpace=wrap;html=1;fontSize=14;align=left;" vertex="1" parent="2TuWQ2MRCflO3B66ABBu-54">
          <mxGeometry width="360" height="280" as="geometry" />
        </mxCell>
        <mxCell id="2TuWQ2MRCflO3B66ABBu-56" value="Comment" style="html=1;fillColor=none;strokeColor=none;fontSize=15;align=left;fontColor=#000000;whiteSpace=wrap;fontStyle=1" vertex="1" parent="2TuWQ2MRCflO3B66ABBu-54">
          <mxGeometry x="20" y="27.5" width="90" height="20" as="geometry" />
        </mxCell>
        <mxCell id="2TuWQ2MRCflO3B66ABBu-57" value="" style="shape=line;strokeColor=#596780;html=1;fontSize=14;align=left;" vertex="1" parent="2TuWQ2MRCflO3B66ABBu-54">
          <mxGeometry x="20" y="47.5" width="320" height="10" as="geometry" />
        </mxCell>
        <mxCell id="2TuWQ2MRCflO3B66ABBu-58" value="" style="shape=mxgraph.ios7.icons.user;fillColor=#ffffff;strokeColor=#253858;fontSize=14;align=left;" vertex="1" parent="2TuWQ2MRCflO3B66ABBu-54">
          <mxGeometry x="40" y="67.5" width="32" height="32" as="geometry" />
        </mxCell>
        <mxCell id="2TuWQ2MRCflO3B66ABBu-59" value="Alex" style="html=1;fillColor=none;strokeColor=none;fontSize=12;align=left;fontColor=#000000;whiteSpace=wrap;fontStyle=1" vertex="1" parent="2TuWQ2MRCflO3B66ABBu-54">
          <mxGeometry x="80" y="67.5" width="90" height="20" as="geometry" />
        </mxCell>
        <mxCell id="2TuWQ2MRCflO3B66ABBu-60" value="Hello, I&#39;m Alex." style="html=1;fillColor=none;strokeColor=none;fontSize=12;align=left;fontColor=#000000;whiteSpace=wrap" vertex="1" parent="2TuWQ2MRCflO3B66ABBu-54">
          <mxGeometry x="80" y="87.5" width="240" height="20" as="geometry" />
        </mxCell>
        <mxCell id="2TuWQ2MRCflO3B66ABBu-61" value="" style="shape=mxgraph.ios7.icons.user;fillColor=#ffffff;strokeColor=#253858;fontSize=14;align=left;" vertex="1" parent="2TuWQ2MRCflO3B66ABBu-54">
          <mxGeometry x="40" y="230" width="32" height="32" as="geometry" />
        </mxCell>
        <mxCell id="2TuWQ2MRCflO3B66ABBu-62" value="Add comment" style="rounded=1;arcSize=9;fillColor=#ffffff;align=left;spacingLeft=5;strokeColor=#DEE1E6;html=1;strokeWidth=2;fontColor=#596780;fontSize=12" vertex="1" parent="2TuWQ2MRCflO3B66ABBu-54">
          <mxGeometry x="80" y="230" width="260" height="33" as="geometry" />
        </mxCell>
        <mxCell id="2TuWQ2MRCflO3B66ABBu-63" value="" style="html=1;shadow=0;dashed=0;shape=mxgraph.basic.cross2;dx=0;strokeColor=#42526E;fillColor=#42526E" vertex="1" parent="2TuWQ2MRCflO3B66ABBu-62">
          <mxGeometry x="1" y="0.5" width="14" height="14" relative="1" as="geometry">
            <mxPoint x="-28" y="-7" as="offset" />
          </mxGeometry>
        </mxCell>
        <mxCell id="2TuWQ2MRCflO3B66ABBu-64" value="" style="shape=mxgraph.ios7.icons.user;fillColor=#ffffff;strokeColor=#253858;fontSize=14;align=left;" vertex="1" parent="2TuWQ2MRCflO3B66ABBu-54">
          <mxGeometry x="40" y="117.5" width="32" height="32" as="geometry" />
        </mxCell>
        <mxCell id="2TuWQ2MRCflO3B66ABBu-65" value="Bill" style="html=1;fillColor=none;strokeColor=none;fontSize=12;align=left;fontColor=#000000;whiteSpace=wrap;fontStyle=1" vertex="1" parent="2TuWQ2MRCflO3B66ABBu-54">
          <mxGeometry x="80" y="117.5" width="90" height="20" as="geometry" />
        </mxCell>
        <mxCell id="2TuWQ2MRCflO3B66ABBu-66" value="Good day!" style="html=1;fillColor=none;strokeColor=none;fontSize=12;align=left;fontColor=#000000;whiteSpace=wrap" vertex="1" parent="2TuWQ2MRCflO3B66ABBu-54">
          <mxGeometry x="80" y="137.5" width="240" height="20" as="geometry" />
        </mxCell>
        <mxCell id="2TuWQ2MRCflO3B66ABBu-67" value="" style="shape=line;strokeColor=#596780;html=1;fontSize=14;align=left;" vertex="1" parent="2TuWQ2MRCflO3B66ABBu-54">
          <mxGeometry x="20" y="210" width="320" height="10" as="geometry" />
        </mxCell>
        <mxCell id="2TuWQ2MRCflO3B66ABBu-68" value="" style="shape=mxgraph.ios7.icons.user;fillColor=#ffffff;strokeColor=#253858;fontSize=14;align=left;" vertex="1" parent="2TuWQ2MRCflO3B66ABBu-54">
          <mxGeometry x="40" y="170" width="32" height="32" as="geometry" />
        </mxCell>
        <mxCell id="2TuWQ2MRCflO3B66ABBu-69" value="Hacker" style="html=1;fillColor=none;strokeColor=none;fontSize=12;align=left;fontColor=#000000;whiteSpace=wrap;fontStyle=1" vertex="1" parent="2TuWQ2MRCflO3B66ABBu-54">
          <mxGeometry x="80" y="170" width="90" height="20" as="geometry" />
        </mxCell>
        <mxCell id="2TuWQ2MRCflO3B66ABBu-70" value="Hi!" style="html=1;fillColor=none;strokeColor=none;fontSize=12;align=left;fontColor=#000000;whiteSpace=wrap" vertex="1" parent="2TuWQ2MRCflO3B66ABBu-54">
          <mxGeometry x="80" y="190" width="240" height="20" as="geometry" />
        </mxCell>
      </root>
    </mxGraphModel>
  </diagram>
</mxfile>
